<mxfile host="app.diagrams.net" modified="2024-05-09T10:26:02.502Z" agent="Mozilla/5.0 (Macintosh; Intel Mac OS X 10_15_7) AppleWebKit/605.1.15 (KHTML, like Gecko) Version/17.3 Safari/605.1.15" etag="HyuBZbFjBlk8NLvwiNEJ" version="24.3.1" type="device">
  <diagram name="Page-1" id="JsHUEGDlsRq30NTsk1rT">
    <mxGraphModel dx="1145" dy="779" grid="1" gridSize="10" guides="1" tooltips="1" connect="1" arrows="1" fold="1" page="1" pageScale="1" pageWidth="827" pageHeight="1169" math="0" shadow="0">
      <root>
        <mxCell id="0" />
        <mxCell id="1" parent="0" />
        <mxCell id="GBOS3SV3QutHxm366jlo-6" style="edgeStyle=orthogonalEdgeStyle;rounded=0;orthogonalLoop=1;jettySize=auto;html=1;exitX=0.5;exitY=1;exitDx=0;exitDy=0;" edge="1" parent="1" source="GBOS3SV3QutHxm366jlo-1" target="GBOS3SV3QutHxm366jlo-2">
          <mxGeometry relative="1" as="geometry" />
        </mxCell>
        <mxCell id="GBOS3SV3QutHxm366jlo-1" value="bookings" style="whiteSpace=wrap;html=1;fontSize=20;" vertex="1" parent="1">
          <mxGeometry x="240" y="80" width="160" height="80" as="geometry" />
        </mxCell>
        <mxCell id="GBOS3SV3QutHxm366jlo-7" style="edgeStyle=orthogonalEdgeStyle;rounded=0;orthogonalLoop=1;jettySize=auto;html=1;exitX=0.5;exitY=1;exitDx=0;exitDy=0;entryX=0.5;entryY=0;entryDx=0;entryDy=0;" edge="1" parent="1" source="GBOS3SV3QutHxm366jlo-2" target="GBOS3SV3QutHxm366jlo-3">
          <mxGeometry relative="1" as="geometry" />
        </mxCell>
        <mxCell id="GBOS3SV3QutHxm366jlo-8" style="edgeStyle=orthogonalEdgeStyle;rounded=0;orthogonalLoop=1;jettySize=auto;html=1;exitX=0.25;exitY=1;exitDx=0;exitDy=0;entryX=0.5;entryY=0;entryDx=0;entryDy=0;" edge="1" parent="1" source="GBOS3SV3QutHxm366jlo-2" target="GBOS3SV3QutHxm366jlo-5">
          <mxGeometry relative="1" as="geometry" />
        </mxCell>
        <mxCell id="GBOS3SV3QutHxm366jlo-9" style="edgeStyle=orthogonalEdgeStyle;rounded=0;orthogonalLoop=1;jettySize=auto;html=1;exitX=0.75;exitY=1;exitDx=0;exitDy=0;" edge="1" parent="1" source="GBOS3SV3QutHxm366jlo-2" target="GBOS3SV3QutHxm366jlo-4">
          <mxGeometry relative="1" as="geometry" />
        </mxCell>
        <mxCell id="GBOS3SV3QutHxm366jlo-2" value="filter" style="whiteSpace=wrap;html=1;fontSize=20;" vertex="1" parent="1">
          <mxGeometry x="240" y="200" width="160" height="80" as="geometry" />
        </mxCell>
        <mxCell id="GBOS3SV3QutHxm366jlo-3" value="today" style="whiteSpace=wrap;html=1;fontSize=20;" vertex="1" parent="1">
          <mxGeometry x="240" y="320" width="160" height="80" as="geometry" />
        </mxCell>
        <mxCell id="GBOS3SV3QutHxm366jlo-4" value="future" style="whiteSpace=wrap;html=1;fontSize=20;" vertex="1" parent="1">
          <mxGeometry x="440" y="320" width="160" height="80" as="geometry" />
        </mxCell>
        <mxCell id="GBOS3SV3QutHxm366jlo-5" value="past" style="whiteSpace=wrap;html=1;fontSize=20;" vertex="1" parent="1">
          <mxGeometry x="40" y="320" width="160" height="80" as="geometry" />
        </mxCell>
        <mxCell id="GBOS3SV3QutHxm366jlo-10" value="&lt;div style=&quot;text-align: left;&quot;&gt;{&lt;/div&gt;&lt;div style=&quot;text-align: left;&quot;&gt;&amp;nbsp; &amp;nbsp; &quot;id&quot;: &quot;946&quot;,&lt;/div&gt;&lt;div style=&quot;text-align: left;&quot;&gt;&amp;nbsp; &amp;nbsp; &quot;locationId&quot;: &quot;11&quot;,&lt;/div&gt;&lt;div style=&quot;text-align: left;&quot;&gt;&amp;nbsp; &amp;nbsp; &quot;bookingKey&quot;: &quot;105957&quot;,&lt;/div&gt;&lt;div style=&quot;text-align: left;&quot;&gt;&amp;nbsp; &amp;nbsp; &quot;productName&quot;: &quot;Auf der Suche nach Gulliver&quot;,&lt;/div&gt;&lt;div style=&quot;text-align: left;&quot;&gt;&amp;nbsp; &amp;nbsp; &quot;customerName&quot;: &quot;John Doe&quot;,&lt;/div&gt;&lt;div style=&quot;text-align: left;&quot;&gt;&amp;nbsp; &amp;nbsp; &quot;bookingDateTime&quot;: &quot;2024-05-09 14:00:00&quot;,&lt;/div&gt;&lt;div style=&quot;text-align: left;&quot;&gt;&amp;nbsp; &amp;nbsp; &quot;eventDateTime&quot;: &quot;2024-05-15 18:00:00&quot;,&lt;/div&gt;&lt;div style=&quot;text-align: left;&quot;&gt;&amp;nbsp; &amp;nbsp; &quot;amount&quot;: 159,&lt;/div&gt;&lt;div style=&quot;text-align: left;&quot;&gt;&amp;nbsp; &amp;nbsp; &quot;paymentStatusIsPaid&quot;: 0,&lt;/div&gt;&lt;div style=&quot;text-align: left;&quot;&gt;&amp;nbsp; &amp;nbsp; &quot;timestamp&quot;: &quot;2024-05-09 14:05:00&quot;&lt;/div&gt;&lt;div style=&quot;text-align: left;&quot;&gt;}&lt;/div&gt;&lt;div&gt;&lt;br&gt;&lt;/div&gt;" style="text;html=1;align=center;verticalAlign=middle;whiteSpace=wrap;rounded=0;" vertex="1" parent="1">
          <mxGeometry x="430" y="100" width="370" height="30" as="geometry" />
        </mxCell>
        <mxCell id="GBOS3SV3QutHxm366jlo-11" value="&lt;h1 style=&quot;margin-top: 0px;&quot;&gt;Graphical Form of Topology&lt;/h1&gt;&lt;p&gt;&lt;br&gt;&lt;/p&gt;" style="text;html=1;whiteSpace=wrap;overflow=hidden;rounded=0;" vertex="1" parent="1">
          <mxGeometry x="10" y="10" width="510" height="120" as="geometry" />
        </mxCell>
        <mxCell id="GBOS3SV3QutHxm366jlo-12" value="past" style="text;html=1;align=center;verticalAlign=middle;resizable=0;points=[];autosize=1;strokeColor=none;fillColor=none;" vertex="1" parent="1">
          <mxGeometry x="95" y="438" width="50" height="30" as="geometry" />
        </mxCell>
        <mxCell id="GBOS3SV3QutHxm366jlo-13" value="today" style="text;html=1;align=center;verticalAlign=middle;resizable=0;points=[];autosize=1;strokeColor=none;fillColor=none;" vertex="1" parent="1">
          <mxGeometry x="295" y="438" width="50" height="30" as="geometry" />
        </mxCell>
        <mxCell id="GBOS3SV3QutHxm366jlo-14" value="future" style="text;html=1;align=center;verticalAlign=middle;resizable=0;points=[];autosize=1;strokeColor=none;fillColor=none;" vertex="1" parent="1">
          <mxGeometry x="495" y="438" width="50" height="30" as="geometry" />
        </mxCell>
      </root>
    </mxGraphModel>
  </diagram>
</mxfile>
